emg_normalized.mot
version=1
nRows=65
nColumns=17
in_degrees=yes
endheader
time	VM	VL	RF	GRA	TA	ADDLONG	SEMIMEM	BFLH	GM	GL	TFL	GLUTMAX	GLUTMED	PIRI	OBTINT	QF
1.686500	0.736462	0.903948	0.583305	0.325675	0.537691	0.694600	0.137985	0.297243	0.437848	0.490792	0.105240	0.769858	0.875578	0.254884	0.764032	0.880112
1.687000	0.742311	0.908846	0.587341	0.325851	0.533832	0.693989	0.135978	0.296218	0.441120	0.494113	0.105750	0.764934	0.879829	0.258232	0.770273	0.884042
1.687500	0.748147	0.913630	0.591352	0.326013	0.530054	0.693412	0.134058	0.295282	0.444418	0.497421	0.106258	0.759934	0.884016	0.261630	0.776511	0.887891
1.688000	0.753967	0.918304	0.595342	0.326163	0.526357	0.692867	0.132227	0.294436	0.447741	0.500714	0.106763	0.754857	0.888140	0.265078	0.782743	0.891658
1.688500	0.759773	0.922864	0.599304	0.326299	0.522735	0.692358	0.130485	0.293680	0.451091	0.503993	0.107264	0.749709	0.892198	0.268573	0.788968	0.895345
1.689000	0.765562	0.927306	0.603245	0.326421	0.519199	0.691884	0.128831	0.293014	0.454471	0.507257	0.107760	0.744489	0.896190	0.272116	0.795178	0.898954
1.689500	0.771333	0.931632	0.607161	0.326532	0.515738	0.691448	0.127265	0.292439	0.457879	0.510505	0.108254	0.739201	0.900113	0.275703	0.801374	0.902486
1.690000	0.777085	0.935840	0.611053	0.326629	0.512358	0.691049	0.125787	0.291954	0.461316	0.513740	0.108744	0.733849	0.903968	0.279333	0.807549	0.905943
1.690500	0.782819	0.939928	0.614925	0.326713	0.509058	0.690688	0.124398	0.291561	0.464786	0.516957	0.109231	0.728436	0.907751	0.283005	0.813699	0.909330
1.691000	0.788531	0.943897	0.618767	0.326782	0.505839	0.690365	0.123097	0.291260	0.468288	0.520159	0.109713	0.722962	0.911463	0.286718	0.819823	0.912647
1.691500	0.794223	0.947741	0.622585	0.326837	0.502701	0.690080	0.121884	0.291049	0.471822	0.523344	0.110191	0.717436	0.915101	0.290469	0.825913	0.915897
1.692000	0.799891	0.951462	0.626375	0.326879	0.499642	0.689834	0.120759	0.290930	0.475390	0.526513	0.110667	0.711859	0.918665	0.294257	0.831966	0.919081
1.692500	0.805536	0.955058	0.630140	0.326907	0.496660	0.689625	0.119720	0.290901	0.478991	0.529666	0.111136	0.706234	0.922152	0.298081	0.837978	0.922202
1.693000	0.811157	0.958529	0.633876	0.326920	0.493758	0.689454	0.118770	0.290962	0.482627	0.532804	0.111603	0.700566	0.925561	0.301938	0.843944	0.925260
1.693500	0.816751	0.961868	0.637583	0.326916	0.490937	0.689321	0.117906	0.291113	0.486298	0.535923	0.112065	0.694856	0.928892	0.305825	0.849858	0.928258
1.694000	0.822318	0.965076	0.641266	0.326897	0.488196	0.689225	0.117129	0.291355	0.490002	0.539028	0.112520	0.689112	0.932141	0.309743	0.855717	0.931197
1.694500	0.827857	0.968153	0.644916	0.326863	0.485532	0.689164	0.116439	0.291686	0.493741	0.542117	0.112973	0.683333	0.935308	0.313688	0.861515	0.934078
1.695000	0.833367	0.971092	0.648537	0.326812	0.482947	0.689138	0.115834	0.292107	0.497516	0.545191	0.113419	0.677527	0.938393	0.317660	0.867248	0.936903
1.695500	0.838846	0.973894	0.652126	0.326745	0.480444	0.689148	0.115315	0.292615	0.501326	0.548250	0.113860	0.671693	0.941391	0.321655	0.872912	0.939674
1.696000	0.844293	0.976559	0.655685	0.326659	0.478020	0.689190	0.114880	0.293212	0.505170	0.551293	0.114295	0.665837	0.944303	0.325673	0.878502	0.942390
1.696500	0.849706	0.979080	0.659208	0.326558	0.475678	0.689264	0.114531	0.293896	0.509050	0.554323	0.114725	0.659962	0.947130	0.329711	0.884013	0.945054
1.697000	0.855084	0.981460	0.662702	0.326440	0.473415	0.689370	0.114266	0.294667	0.512966	0.557338	0.115148	0.654072	0.949870	0.333770	0.889442	0.947665
1.697500	0.860423	0.983692	0.666159	0.326304	0.471229	0.689505	0.114084	0.295524	0.516917	0.560341	0.115566	0.648168	0.952522	0.337846	0.894783	0.950226
1.698000	0.865723	0.985781	0.669580	0.326149	0.469128	0.689670	0.113985	0.296466	0.520903	0.563330	0.115978	0.642253	0.955088	0.341939	0.900032	0.952736
1.698500	0.870979	0.987723	0.672963	0.325978	0.467102	0.689864	0.113969	0.297493	0.524924	0.566305	0.116385	0.636330	0.957568	0.346047	0.905187	0.955196
1.699000	0.876191	0.989521	0.676314	0.325788	0.465162	0.690085	0.114033	0.298605	0.528979	0.569268	0.116783	0.630406	0.959960	0.350169	0.910244	0.957604
1.699500	0.881354	0.991175	0.679619	0.325580	0.463297	0.690334	0.114180	0.299798	0.533070	0.572219	0.117176	0.624478	0.962266	0.354303	0.915199	0.959962
1.700000	0.886466	0.992683	0.682892	0.325354	0.461513	0.690608	0.114407	0.301076	0.537195	0.575156	0.117561	0.618554	0.964486	0.358448	0.920046	0.962269
1.700500	0.891522	0.994048	0.686115	0.325109	0.459810	0.690909	0.114714	0.302435	0.541354	0.578081	0.117938	0.612633	0.966620	0.362603	0.924781	0.964524
1.701000	0.896521	0.995270	0.689302	0.324846	0.458182	0.691236	0.115099	0.303878	0.545546	0.580994	0.118308	0.606719	0.968671	0.366767	0.929402	0.966727
1.701500	0.901457	0.996352	0.692443	0.324562	0.456635	0.691586	0.115563	0.305400	0.549769	0.583896	0.118670	0.600814	0.970638	0.370937	0.933904	0.968877
1.702000	0.906329	0.997290	0.695536	0.324257	0.455169	0.691962	0.116104	0.307004	0.554024	0.586787	0.119024	0.594919	0.972524	0.375115	0.938280	0.970973
1.702500	0.911129	0.998086	0.698583	0.323933	0.453778	0.692361	0.116723	0.308686	0.558311	0.589663	0.119370	0.589037	0.974332	0.379298	0.942528	0.973014
1.703000	0.915857	0.998743	0.701576	0.323587	0.452464	0.692783	0.117416	0.310448	0.562626	0.592529	0.119706	0.583172	0.976061	0.383486	0.946642	0.974999
1.703500	0.920506	0.999260	0.704521	0.323222	0.451226	0.693228	0.118185	0.312289	0.566971	0.595379	0.120033	0.577323	0.977714	0.387679	0.950617	0.976927
1.704000	0.925071	0.999643	0.707412	0.322836	0.450059	0.693696	0.119028	0.314207	0.571344	0.598219	0.120351	0.571492	0.979293	0.391876	0.954452	0.978795
1.704500	0.929550	0.999889	0.710246	0.322429	0.448972	0.694184	0.119944	0.316202	0.575742	0.601042	0.120660	0.565681	0.980800	0.396075	0.958140	0.980602
1.705000	0.933939	1.000000	0.713018	0.322002	0.447957	0.694694	0.120933	0.318275	0.580164	0.603853	0.120957	0.559892	0.982236	0.400277	0.961680	0.982347
1.705500	0.938230	0.999983	0.715733	0.321553	0.447014	0.695223	0.121992	0.320423	0.584611	0.606648	0.121245	0.554129	0.983605	0.404480	0.965069	0.984027
1.706000	0.942423	0.999837	0.718387	0.321087	0.446142	0.695773	0.123120	0.322645	0.589079	0.609430	0.121522	0.548388	0.984907	0.408682	0.968305	0.985641
1.706500	0.946509	0.999563	0.720970	0.320597	0.445337	0.696341	0.124319	0.324942	0.593568	0.612196	0.121789	0.542673	0.986145	0.412882	0.971387	0.987185
1.707000	0.950487	0.999166	0.723484	0.320089	0.444604	0.696928	0.125586	0.327312	0.598074	0.614946	0.122043	0.536987	0.987321	0.417079	0.974314	0.988658
1.707500	0.954352	0.998644	0.725929	0.319557	0.443938	0.697534	0.126919	0.329756	0.602599	0.617680	0.122288	0.531326	0.988434	0.421273	0.977084	0.990055
1.708000	0.958098	0.998001	0.728295	0.319005	0.443339	0.698159	0.128318	0.332270	0.607138	0.620397	0.122519	0.525695	0.989489	0.425461	0.979696	0.991376
1.708500	0.961720	0.997238	0.730588	0.318430	0.442802	0.698803	0.129781	0.334857	0.611691	0.623096	0.122739	0.520094	0.990487	0.429641	0.982150	0.992618
1.709000	0.965214	0.996357	0.732794	0.317831	0.442333	0.699467	0.131308	0.337514	0.616254	0.625778	0.122947	0.514522	0.991429	0.433813	0.984444	0.993776
1.709500	0.968576	0.995357	0.734918	0.317212	0.441921	0.700151	0.132896	0.340243	0.620827	0.628440	0.123139	0.508981	0.992317	0.437975	0.986579	0.994848
1.710000	0.971800	0.994240	0.736957	0.316568	0.441573	0.700856	0.134546	0.343038	0.625406	0.631080	0.123320	0.503469	0.993152	0.442124	0.988553	0.995831
1.710500	0.974879	0.993006	0.738900	0.315900	0.441286	0.701585	0.136255	0.345904	0.629992	0.633702	0.123486	0.497989	0.993935	0.446261	0.990366	0.996720
1.711000	0.977810	0.991657	0.740750	0.315209	0.441058	0.702337	0.138022	0.348838	0.634580	0.636300	0.123640	0.492540	0.994669	0.450382	0.992019	0.997511
1.711500	0.980586	0.990192	0.742505	0.314493	0.440888	0.703115	0.139844	0.351837	0.639170	0.638878	0.123779	0.487124	0.995354	0.454485	0.993514	0.998203
1.712000	0.983201	0.988616	0.744162	0.313751	0.440772	0.703920	0.141722	0.354905	0.643758	0.641433	0.123903	0.481737	0.995992	0.458569	0.994851	0.998789
1.712500	0.985651	0.986922	0.745721	0.312984	0.440719	0.704754	0.143655	0.358037	0.648343	0.643963	0.124010	0.476383	0.996582	0.462633	0.996031	0.999265
1.713000	0.987927	0.985115	0.747172	0.312194	0.440714	0.705617	0.145639	0.361235	0.652924	0.646472	0.124104	0.471060	0.997126	0.466673	0.997056	0.999629
1.713500	0.990027	0.983194	0.748517	0.311376	0.440768	0.706512	0.147674	0.364497	0.657498	0.648956	0.124182	0.465770	0.997623	0.470689	0.997927	0.999876
1.714000	0.991943	0.981155	0.749752	0.310531	0.440880	0.707440	0.149757	0.367822	0.662062	0.651417	0.124246	0.460513	0.998075	0.474678	0.998643	1.000000
1.714500	0.993670	0.979000	0.750880	0.309660	0.441045	0.708402	0.151888	0.371210	0.666616	0.653853	0.124292	0.455288	0.998481	0.478638	0.999208	0.999998
1.715000	0.995202	0.976727	0.751893	0.308761	0.441260	0.709400	0.154065	0.374659	0.671155	0.656264	0.124321	0.450096	0.998840	0.482565	0.999622	0.999864
1.715500	0.996534	0.974336	0.752791	0.307834	0.441532	0.710435	0.156286	0.378168	0.675681	0.658650	0.124335	0.444937	0.999152	0.486459	0.999886	0.999596
1.716000	0.997659	0.971824	0.753570	0.306880	0.441854	0.711508	0.158548	0.381735	0.680188	0.661010	0.124330	0.439811	0.999417	0.490318	1.000000	0.999185
1.716500	0.998573	0.969192	0.754230	0.305896	0.442234	0.712620	0.160851	0.385361	0.684675	0.663347	0.124310	0.434716	0.999634	0.494136	0.999969	0.998629
1.717000	0.999269	0.966435	0.754772	0.304884	0.442659	0.713771	0.163192	0.389043	0.689140	0.665660	0.124273	0.429654	0.999801	0.497913	0.999791	0.997923
1.717500	0.999743	0.963557	0.755190	0.303844	0.443137	0.714963	0.165571	0.392782	0.693583	0.667945	0.124216	0.424624	0.999919	0.501646	0.999471	0.997065
1.718000	0.999989	0.960552	0.755485	0.302777	0.443669	0.716196	0.167983	0.396573	0.698000	0.670205	0.124143	0.419626	0.999986	0.505332	0.999006	0.996050
1.718500	1.000000	0.957421	0.755657	0.301680	0.444251	0.717470	0.170428	0.400418	0.702391	0.672441	0.124051	0.414658	1.000000	0.508970	0.998398	0.994875
